<svg width="93" height="92" viewBox="0 0 93 92" fill="none" xmlns="http://www.w3.org/2000/svg">
<rect x="0.782227" y="0.237305" width="91.6095" height="91.6095" rx="15" fill="#DBF5E8"/>
<path d="M61.157 17.5578C63.0306 15.4094 65.741 14.1729 68.5889 14.1729C74.0347 14.1729 78.4564 18.5945 78.4564 24.0404C78.4564 26.8882 77.2198 29.6111 75.0714 31.4847L49.1911 54.0176L47.9046 52.7311L39.9106 44.7371L38.6116 43.4381L61.157 17.5578ZM35.7763 46.261L37.0753 47.56L45.0692 55.5539L46.3682 56.8529L43.9701 67.27C43.4829 69.4059 41.8592 71.1046 39.7483 71.6917L17.5526 77.9119L29.4686 65.996C29.7933 66.0834 30.1431 66.1334 30.5053 66.1334C32.7161 66.1334 34.5023 64.3472 34.5023 62.1364C34.5023 59.9256 32.7161 58.1394 30.5053 58.1394C28.2945 58.1394 26.5083 59.9256 26.5083 62.1364C26.5083 62.4986 26.5583 62.8359 26.6457 63.1731L14.7173 75.0766L20.9376 52.8934C21.5246 50.7825 23.2233 49.1588 25.3592 48.6716L35.7763 46.2735V46.261Z" fill="#8BEDBC" fill-opacity="0.7"/>
</svg>
