<svg width="107" height="102" viewBox="0 0 107 102" fill="none" xmlns="http://www.w3.org/2000/svg">
<rect x="0.146484" y="0.94043" width="106.649" height="100.92" rx="15" fill="#F6E3FB"/>
<path d="M87.2331 39.2062C88.7864 39.2062 90.1126 39.8002 91.2116 40.9882C92.3107 42.1762 92.8602 43.6097 92.8602 45.2887C92.8602 46.9678 92.3107 48.4013 91.2116 49.5893C90.1126 50.7773 88.7864 51.3713 87.2331 51.3713V69.619C87.2331 71.2663 86.6763 72.6919 85.5626 73.8958C84.4489 75.0996 83.1301 75.7015 81.6061 75.7015C69.3848 64.7086 57.486 58.6894 45.9095 57.6439C44.2097 58.2458 42.8762 59.2913 41.909 60.7802C40.9419 62.2692 40.4876 63.8611 40.5462 65.556C40.6049 67.2509 41.191 68.7161 42.3047 69.9516C41.7185 70.997 41.3815 72.0346 41.2936 73.0642C41.2057 74.0938 41.2936 75.0125 41.5573 75.8203C41.8211 76.6281 42.312 77.4993 43.0301 78.4339C43.7481 79.3685 44.4515 80.1605 45.1402 80.8099C45.8289 81.4593 46.7301 82.2593 47.8438 83.2097C46.9939 85.0471 45.36 86.3618 42.9421 87.1538C40.5243 87.9458 38.0551 88.128 35.5347 87.7003C33.0142 87.2726 31.0799 86.3935 29.7318 85.0629C29.5266 84.3343 29.0943 82.9483 28.4349 80.9049C27.7755 78.8616 27.3066 77.3647 27.0281 76.4143C26.7497 75.4639 26.4127 74.0542 26.017 72.185C25.6214 70.3159 25.4016 68.7161 25.3576 67.3855C25.3137 66.055 25.3649 64.4947 25.5115 62.7048C25.658 60.9149 25.9804 59.1646 26.4786 57.4539H21.1153C19.1811 57.4539 17.5252 56.7094 16.1477 55.2204C14.7703 53.7315 14.0815 51.9415 14.0815 49.8507V40.7268C14.0815 38.636 14.7703 36.846 16.1477 35.3571C17.5252 33.8681 19.1811 33.1236 21.1153 33.1236H42.2168C54.9655 33.1236 68.0953 27.0411 81.6061 14.876C83.1301 14.876 84.4489 15.4779 85.5626 16.6817C86.6763 17.8856 87.2331 19.3112 87.2331 20.9585V39.2062ZM81.6061 67.9082V22.5742C70.0589 32.1416 58.8048 37.5747 47.8438 38.8736V51.7039C58.8927 53.0345 70.1468 58.4359 81.6061 67.9082Z" fill="#DB88F0" fill-opacity="0.7"/>
</svg>
