<svg width="101" height="102" viewBox="0 0 101 102" fill="none" xmlns="http://www.w3.org/2000/svg">
<rect x="0.427246" y="0.94043" width="100.204" height="100.92" rx="15" fill="#FBE5E5"/>
<path d="M50.5289 87.9252C45.7794 87.9252 41.0764 86.9805 36.6885 85.145C32.3006 83.3094 28.3136 80.6191 24.9552 77.2274C18.1727 70.3777 14.3623 61.0875 14.3623 51.4006C14.3623 41.7137 18.1727 32.4235 24.9552 25.5738C31.7378 18.7241 40.9369 14.876 50.5289 14.876C70.4205 14.876 86.6954 29.4858 86.6954 47.7481C86.6954 53.5603 84.4092 59.1344 80.3396 63.2442C76.2701 67.3541 70.7507 69.6629 64.9955 69.6629H58.4855C57.4005 69.6629 56.6772 70.3934 56.6772 71.4892C56.6772 71.8544 57.0388 72.2196 57.0388 72.5849C58.4855 74.4111 59.2088 76.6026 59.2088 78.7941C59.5705 83.9075 55.5922 87.9252 50.5289 87.9252ZM50.5289 22.1809C42.8553 22.1809 35.496 25.2594 30.07 30.7392C24.6439 36.2189 21.5956 43.6511 21.5956 51.4006C21.5956 59.1502 24.6439 66.5823 30.07 72.0621C35.496 77.5418 42.8553 80.6203 50.5289 80.6203C51.6138 80.6203 52.3372 79.8898 52.3372 78.7941C52.3372 78.0636 51.9755 77.6983 51.9755 77.3331C50.5289 75.5069 49.8055 73.6806 49.8055 71.4892C49.8055 66.3757 53.7838 62.358 58.8472 62.358H64.9955C68.8323 62.358 72.5119 60.8188 75.2249 58.0789C77.9379 55.339 79.4621 51.6229 79.4621 47.7481C79.4621 33.5035 66.4421 22.1809 50.5289 22.1809ZM30.6373 44.0957C33.5306 44.0957 36.0622 46.6524 36.0622 49.5744C36.0622 52.4963 33.5306 55.0531 30.6373 55.0531C27.7439 55.0531 25.2123 52.4963 25.2123 49.5744C25.2123 46.6524 27.7439 44.0957 30.6373 44.0957ZM41.4872 29.4858C44.3805 29.4858 46.9122 32.0426 46.9122 34.9645C46.9122 37.8865 44.3805 40.4432 41.4872 40.4432C38.5939 40.4432 36.0622 37.8865 36.0622 34.9645C36.0622 32.0426 38.5939 29.4858 41.4872 29.4858ZM59.5705 29.4858C62.4638 29.4858 64.9955 32.0426 64.9955 34.9645C64.9955 37.8865 62.4638 40.4432 59.5705 40.4432C56.6772 40.4432 54.1455 37.8865 54.1455 34.9645C54.1455 32.0426 56.6772 29.4858 59.5705 29.4858ZM70.4205 44.0957C73.3138 44.0957 75.8454 46.6524 75.8454 49.5744C75.8454 52.4963 73.3138 55.0531 70.4205 55.0531C67.5271 55.0531 64.9955 52.4963 64.9955 49.5744C64.9955 46.6524 67.5271 44.0957 70.4205 44.0957Z" fill="#FF7D80" fill-opacity="0.7"/>
</svg>
