<svg width="195" height="31" viewBox="0 0 195 31" fill="none" xmlns="http://www.w3.org/2000/svg">
<path d="M5.13557 4.06934H16.4879L10.2711 21.6564H5.13557L0 12.9982L5.13557 4.06934Z" fill="#D10123"/>
<path d="M5.13557 4.06934H16.4879L10.2711 21.6564H5.13557L0 12.9982L5.13557 4.06934Z" fill="#D10123"/>
<path d="M9.45997 6.50488H6.48674L2.70264 12.9986L6.48674 19.2217H9.45997L5.67586 12.9986L9.45997 6.50488Z" fill="white"/>
<path d="M9.45997 6.50488H6.48674L2.70264 12.9986L6.48674 19.2217H9.45997L5.67586 12.9986L9.45997 6.50488Z" fill="white"/>
<path d="M23.9928 24.4043L12.6405 24.4043L18.8573 6.81723L23.9928 6.81722L29.1284 15.4755L23.9928 24.4043Z" fill="#1B80C8"/>
<path d="M24.077 24.4043L12.9108 24.4043L19.0257 7.0878L24.077 7.0878L29.1284 15.6128L24.077 24.4043Z" fill="#1B80C8"/>
<path d="M19.668 21.9697L22.6412 21.9697L26.4253 15.476L22.6412 9.25292L19.668 9.25292L23.4521 15.476L19.668 21.9697Z" fill="white"/>
<path d="M19.668 21.9697L22.6412 21.9697L26.4253 15.476L22.6412 9.25292L19.668 9.25292L23.4521 15.476L19.668 21.9697Z" fill="white"/>
<path d="M39.5956 22.0515L39.6945 17.3524L45.9022 11.4663H50.5023L44.542 17.5255L42.5387 19.1578L39.5956 22.0515ZM36.4052 24.772V6.42096H40.2634V24.772H36.4052ZM46.3227 24.772L41.8215 19.1826L44.2452 16.19L50.997 24.772H46.3227ZM58.5079 24.9698C57.09 24.9698 55.8286 24.673 54.7239 24.0795C53.6357 23.4859 52.7701 22.678 52.1271 21.6558C51.5006 20.617 51.1873 19.4381 51.1873 18.1191C51.1873 16.7836 51.5006 15.6047 52.1271 14.5825C52.7701 13.5437 53.6357 12.7358 54.7239 12.1587C55.8286 11.5652 57.09 11.2684 58.5079 11.2684C59.9094 11.2684 61.1625 11.5652 62.2672 12.1587C63.3718 12.7358 64.2375 13.5355 64.864 14.5577C65.4905 15.58 65.8038 16.7671 65.8038 18.1191C65.8038 19.4381 65.4905 20.617 64.864 21.6558C64.2375 22.678 63.3718 23.4859 62.2672 24.0795C61.1625 24.673 59.9094 24.9698 58.5079 24.9698ZM58.5079 21.8042C59.1509 21.8042 59.728 21.6558 60.2391 21.359C60.7503 21.0622 61.1542 20.6418 61.451 20.0977C61.7478 19.5371 61.8962 18.8776 61.8962 18.1191C61.8962 17.3442 61.7478 16.6847 61.451 16.1406C61.1542 15.5965 60.7503 15.176 60.2391 14.8792C59.728 14.5825 59.1509 14.4341 58.5079 14.4341C57.8649 14.4341 57.2878 14.5825 56.7767 14.8792C56.2656 15.176 55.8534 15.5965 55.5401 16.1406C55.2433 16.6847 55.0949 17.3442 55.0949 18.1191C55.0949 18.8776 55.2433 19.5371 55.5401 20.0977C55.8534 20.6418 56.2656 21.0622 56.7767 21.359C57.2878 21.6558 57.8649 21.8042 58.5079 21.8042ZM74.0957 24.9698C72.8426 24.9698 71.7132 24.6895 70.7075 24.1289C69.7017 23.5519 68.902 22.7522 68.3085 21.73C67.7314 20.7077 67.4429 19.5041 67.4429 18.1191C67.4429 16.7176 67.7314 15.5058 68.3085 14.4835C68.902 13.4613 69.7017 12.6699 70.7075 12.1093C71.7132 11.5487 72.8426 11.2684 74.0957 11.2684C75.2169 11.2684 76.1979 11.5157 77.0388 12.0104C77.8797 12.505 78.531 13.2552 78.9926 14.2609C79.4543 15.2667 79.6851 16.5528 79.6851 18.1191C79.6851 19.669 79.4625 20.955 79.0174 21.9773C78.5722 22.983 77.9292 23.7332 77.0883 24.2279C76.2639 24.7225 75.2664 24.9698 74.0957 24.9698ZM74.7635 21.8042C75.39 21.8042 75.9589 21.6558 76.47 21.359C76.9811 21.0622 77.3851 20.6418 77.6818 20.0977C77.9951 19.5371 78.1517 18.8776 78.1517 18.1191C78.1517 17.3442 77.9951 16.6847 77.6818 16.1406C77.3851 15.5965 76.9811 15.176 76.47 14.8792C75.9589 14.5825 75.39 14.4341 74.7635 14.4341C74.1205 14.4341 73.5434 14.5825 73.0323 14.8792C72.5211 15.176 72.1089 15.5965 71.7957 16.1406C71.4989 16.6847 71.3505 17.3442 71.3505 18.1191C71.3505 18.8776 71.4989 19.5371 71.7957 20.0977C72.1089 20.6418 72.5211 21.0622 73.0323 21.359C73.5434 21.6558 74.1205 21.8042 74.7635 21.8042ZM78.2507 24.772V22.0515L78.3249 18.0944L78.0776 14.162V6.42096H81.9357V24.772H78.2507ZM92.11 24.9698C90.5931 24.9698 89.2576 24.673 88.1034 24.0795C86.9657 23.4859 86.0836 22.678 85.4571 21.6558C84.8306 20.617 84.5173 19.4381 84.5173 18.1191C84.5173 16.7836 84.8223 15.6047 85.4324 14.5825C86.0589 13.5437 86.908 12.7358 87.9797 12.1587C89.0515 11.5652 90.2633 11.2684 91.6153 11.2684C92.9179 11.2684 94.0885 11.5487 95.1272 12.1093C96.1825 12.6534 97.0151 13.4448 97.6252 14.4835C98.2352 15.5058 98.5402 16.7341 98.5402 18.1686C98.5402 18.317 98.532 18.4901 98.5155 18.6879C98.499 18.8693 98.4825 19.0424 98.466 19.2073H87.6582V16.9567H96.438L94.9541 17.6245C94.9541 16.932 94.814 16.3302 94.5337 15.8191C94.2534 15.3079 93.8659 14.9122 93.3713 14.6319C92.8767 14.3351 92.2996 14.1868 91.6401 14.1868C90.9805 14.1868 90.3952 14.3351 89.8841 14.6319C89.3895 14.9122 89.002 15.3162 88.7217 15.8438C88.4414 16.3549 88.3013 16.965 88.3013 17.6739V18.2675C88.3013 18.993 88.4579 19.636 88.7712 20.1966C89.1009 20.7407 89.5543 21.1611 90.1314 21.4579C90.725 21.7382 91.4175 21.8783 92.2089 21.8783C92.9179 21.8783 93.5362 21.7712 94.0638 21.5568C94.6079 21.3425 95.1025 21.021 95.5477 20.5923L97.6004 22.8182C96.9904 23.5106 96.2237 24.0465 95.3004 24.4257C94.377 24.7885 93.3136 24.9698 92.11 24.9698ZM101.109 24.772V11.4663H104.967V24.772H101.109ZM103.038 9.61136C102.329 9.61136 101.752 9.40527 101.307 8.99307C100.862 8.58087 100.639 8.06975 100.639 7.4597C100.639 6.84964 100.862 6.33852 101.307 5.92632C101.752 5.51413 102.329 5.30803 103.038 5.30803C103.747 5.30803 104.324 5.50588 104.769 5.90159C105.214 6.28081 105.437 6.77545 105.437 7.3855C105.437 8.02853 105.214 8.56438 104.769 8.99307C104.34 9.40527 103.763 9.61136 103.038 9.61136ZM116.635 11.2684C117.69 11.2684 118.63 11.4827 119.454 11.9114C120.295 12.3236 120.955 12.9666 121.433 13.8405C121.911 14.6979 122.15 15.8026 122.15 17.1546V24.772H118.292V17.7481C118.292 16.6764 118.053 15.885 117.575 15.3739C117.113 14.8628 116.454 14.6072 115.596 14.6072C114.986 14.6072 114.434 14.7391 113.939 15.0029C113.461 15.2502 113.082 15.6377 112.802 16.1653C112.538 16.6929 112.406 17.3689 112.406 18.1933V24.772H108.548V11.4663H112.233V15.1513L111.54 14.0384C112.018 13.148 112.703 12.4638 113.593 11.9856C114.483 11.5075 115.497 11.2684 116.635 11.2684Z" fill="#FF7E2B"/>
<path d="M130.248 24.8709C129.11 24.8709 128.236 24.5576 127.626 23.9311C127.032 23.3046 126.736 22.4472 126.736 21.359V9.04253H127.972V21.2353C127.972 22.0597 128.178 22.6945 128.591 23.1397C129.003 23.5848 129.596 23.8074 130.371 23.8074C131.179 23.8074 131.847 23.5684 132.375 23.0902L132.894 23.9558C132.564 24.2691 132.16 24.4999 131.682 24.6483C131.22 24.7967 130.742 24.8709 130.248 24.8709ZM124.361 12.9254V11.862H132.078V12.9254H124.361ZM141.127 24.8709C139.824 24.8709 138.67 24.5906 137.664 24.03C136.675 23.4694 135.892 22.6945 135.315 21.7052C134.754 20.716 134.474 19.5865 134.474 18.317C134.474 17.0309 134.738 15.9015 135.265 14.9287C135.809 13.9394 136.551 13.1645 137.491 12.6039C138.431 12.0433 139.486 11.763 140.657 11.763C141.827 11.763 142.874 12.0351 143.798 12.5792C144.738 13.1233 145.471 13.89 145.999 14.8792C146.543 15.852 146.815 16.9814 146.815 18.2675C146.815 18.317 146.807 18.3747 146.79 18.4406C146.79 18.4901 146.79 18.5478 146.79 18.6137H135.389V17.6492H146.123L145.628 18.1191C145.644 17.1134 145.43 16.2148 144.985 15.4233C144.556 14.6154 143.971 13.9889 143.229 13.5437C142.487 13.0821 141.63 12.8512 140.657 12.8512C139.7 12.8512 138.843 13.0821 138.085 13.5437C137.343 13.9889 136.757 14.6154 136.329 15.4233C135.9 16.2148 135.686 17.1216 135.686 18.1438V18.3664C135.686 19.4217 135.917 20.3615 136.378 21.1859C136.856 21.9938 137.508 22.6285 138.332 23.0902C139.156 23.5354 140.096 23.758 141.151 23.758C141.976 23.758 142.743 23.6096 143.451 23.3128C144.177 23.016 144.787 22.5626 145.282 21.9525L145.999 22.7687C145.438 23.4612 144.729 23.9888 143.872 24.3515C143.031 24.6978 142.116 24.8709 141.127 24.8709ZM151.58 21.2106L151.605 19.6525L160.138 11.862H161.72L156.057 17.1793L155.315 17.7976L151.58 21.2106ZM150.641 24.772V6.42096H151.877V24.772H150.641ZM160.731 24.772L155.092 17.6987L155.933 16.7836L162.264 24.772H160.731ZM171.269 11.763C172.325 11.763 173.24 11.9691 174.015 12.3813C174.806 12.777 175.416 13.3871 175.845 14.2115C176.29 15.0194 176.513 16.0252 176.513 17.2288V24.772H175.276V17.3277C175.276 15.8768 174.905 14.7721 174.163 14.0136C173.438 13.2552 172.415 12.876 171.096 12.876C170.09 12.876 169.217 13.0821 168.475 13.4943C167.733 13.9065 167.164 14.4835 166.768 15.2255C166.389 15.9674 166.199 16.8578 166.199 17.8965V24.772H164.963V11.862H166.15V15.4481L165.977 15.0524C166.372 14.0301 167.024 13.2305 167.931 12.6534C168.837 12.0598 169.95 11.763 171.269 11.763ZM186.649 24.8709C185.412 24.8709 184.308 24.5906 183.335 24.03C182.379 23.4694 181.612 22.6945 181.035 21.7052C180.474 20.716 180.194 19.5865 180.194 18.317C180.194 17.0309 180.474 15.9015 181.035 14.9287C181.612 13.9394 182.379 13.1645 183.335 12.6039C184.308 12.0433 185.412 11.763 186.649 11.763C187.885 11.763 188.99 12.0433 189.963 12.6039C190.936 13.1645 191.702 13.9394 192.263 14.9287C192.824 15.9015 193.104 17.0309 193.104 18.317C193.104 19.5865 192.824 20.716 192.263 21.7052C191.702 22.6945 190.936 23.4694 189.963 24.03C188.99 24.5906 187.885 24.8709 186.649 24.8709ZM186.649 23.758C187.638 23.758 188.529 23.5354 189.32 23.0902C190.111 22.6285 190.73 21.9855 191.175 21.1611C191.62 20.3367 191.843 19.3887 191.843 18.317C191.843 17.2288 191.62 16.2807 191.175 15.4728C190.73 14.6484 190.111 14.0136 189.32 13.5685C188.529 13.1068 187.638 12.876 186.649 12.876C185.66 12.876 184.769 13.1068 183.978 13.5685C183.203 14.0136 182.585 14.6484 182.123 15.4728C181.678 16.2807 181.455 17.2288 181.455 18.317C181.455 19.3887 181.678 20.3367 182.123 21.1611C182.585 21.9855 183.203 22.6285 183.978 23.0902C184.769 23.5354 185.66 23.758 186.649 23.758Z" fill="white"/>
</svg>
