<svg width="99" height="94" viewBox="0 0 99 94" fill="none" xmlns="http://www.w3.org/2000/svg">
<rect x="0.385254" y="0.879883" width="98.055" height="92.3257" rx="15" fill="#E7F0FC"/>
<path d="M14.3203 29.1388V21.9771C14.3203 20.0077 15.0081 18.3223 16.3837 16.921C17.7594 15.5197 19.411 14.8178 21.3388 14.8154H77.4864C79.4165 14.8154 81.0694 15.5173 82.445 16.921C83.8206 18.3247 84.5072 20.01 84.5049 21.9771V29.1388H77.4864V21.9771H21.3388V29.1388H14.3203ZM35.3757 79.2707V72.109H21.3388C19.4087 72.109 17.757 71.4083 16.3837 70.007C15.0105 68.6057 14.3227 66.9191 14.3203 64.9473V57.7856H21.3388V64.9473H77.4864V57.7856H84.5049V64.9473C84.5049 66.9167 83.8183 68.6033 82.445 70.007C81.0717 71.4107 79.4189 72.1114 77.4864 72.109H63.4495V79.2707H35.3757ZM24.1462 43.4622L33.2702 34.152L28.3572 29.1388L14.3203 43.4622L28.3572 57.7856L33.2702 52.7724L24.1462 43.4622ZM74.6791 43.4622L65.5551 52.7724L70.468 57.7856L84.5049 43.4622L70.468 29.1388L65.5551 34.152L74.6791 43.4622Z" fill="#80B2FF" fill-opacity="0.7"/>
</svg>
